<?xml version="1.0" encoding="UTF-8"?><svg xmlns="http://www.w3.org/2000/svg" viewBox="0 0 272.84 98.5"><g id="a"><circle cx="49.26" cy="49.25" r="49.25" style="fill:#fff;"/></g><g id="b"><g><path d="M154.59,20.81v43.23h-5.52v-3.75c-2.05,2.79-6.2,4.66-10.12,4.66-7.96,0-13.31-6.37-13.31-15.93s5.4-15.76,13.59-15.76c3.7,0,7.34,1.93,9.67,4.95V20.81h5.69Zm-14.45,39.19c5.29,0,8.76-3.81,8.76-9.61v-3.24c0-5.4-3.53-8.93-8.87-8.93s-8.7,4.27-8.7,10.75,3.53,11.03,8.82,11.03Z" style="fill:#1d1d1b;"/><path d="M162.5,34.18h5.69v29.86h-5.69v-29.86Z" style="fill:#1d1d1b;"/><path d="M203.56,34.18v27.81c0,12.57-5.75,15.7-13.59,15.7s-12.74-3.01-14.22-10.18h5.63c.97,3.7,4.21,5.23,8.3,5.23,6.2,0,8.19-3.47,8.19-11.15v-1.82c-2.28,3.58-5.8,5.18-9.95,5.18-8.53,0-13.31-6.77-13.31-16.15,0-8.48,3.92-15.53,13.03-15.53,4.15,0,7.85,1.48,10.24,5.4v-4.49h5.69Zm-14.56,25.82c5.29,0,8.87-3.53,8.87-9.61v-3.24c0-5.52-3.75-8.93-8.99-8.93-5.8,0-8.93,4.27-8.93,10.75s3.19,11.03,9.04,11.03Z" style="fill:#1d1d1b;"/><path d="M211.36,34.18h5.69v29.86h-5.69v-29.86Z" style="fill:#1d1d1b;"/><path d="M226.77,56.02v-16.95h-3.98v-4.32c3.53,0,4.27-1.54,4.27-5.01v-3.24h5.4v7.68h6.6v4.89h-6.6v15.7c0,3.87,1.31,4.95,5.01,4.95,.51,0,1.08,0,1.93-.06v4.78c-1.31,.11-2.39,.17-3.41,.17-6.88,0-9.21-2.96-9.21-8.59Z" style="fill:#1d1d1b;"/><path d="M243.89,55.62c0-2.73,1.08-5.06,3.36-6.77,2.5-1.93,6.54-3.07,15.47-3.07h1.59v-1.71c0-3.53-1.71-5.92-6.48-5.92-5.18,0-6.77,2.5-6.88,4.66h-5.52c.11-4.15,2.62-9.5,12.51-9.5,7.28,0,12.12,2.9,12.12,12.8v10.64c0,2.62,.57,3.41,2.79,3.41v4.27h-1.42c-3.58-.06-6.2-1.88-6.54-4.55h-.11c-1.99,2.73-6.09,4.78-10.58,4.78-7.74,0-10.29-4.78-10.29-9.04Zm11.6,4.49c5.97,0,8.87-3.81,8.87-5.97v-4.32h-1.88c-7.05,0-12.97,.91-12.97,5.8,0,2.73,2.05,4.49,5.97,4.49Z" style="fill:#1d1d1b;"/></g><path d="M95.19,52.13c-2.33,0-4.22-1.89-4.22-4.22s1.89-4.22,4.22-4.22c1.28,0,2.42,.58,3.19,1.49-.23-2.85-.69-5.64-1.39-8.34-.55,.26-1.15,.42-1.8,.42-2.33,0-4.22-1.89-4.22-4.22,0-1.99,1.38-3.64,3.22-4.09-5.01-11.1-14.01-20-25.18-24.89-.52,1.73-2.11,3-4.02,3-2.33,0-4.22-1.89-4.22-4.22,0-.52,.11-1.02,.28-1.48-2.51-.62-5.1-1.04-7.75-1.25,.63,.74,1.03,1.69,1.03,2.73,0,2.33-1.89,4.22-4.22,4.22s-4.22-1.89-4.22-4.22c0-1.11,.44-2.1,1.13-2.86C20.86,1.17,0,22.75,0,49.22s22.06,49.28,49.28,49.28,48.58-21.39,49.25-48.03c-.77,1.01-1.97,1.66-3.34,1.66ZM48.32,18.08c-.72-2.22,.49-4.59,2.71-5.31,2.21-.72,4.59,.49,5.31,2.71s-.49,4.59-2.71,5.31c-2.21,.72-4.59-.49-5.31-2.71Zm12.89,14.67c-1.89,1.37-4.52,.95-5.89-.93-1.37-1.88-.95-4.52,.93-5.89,1.89-1.37,4.52-.95,5.89,.93,1.37,1.88,.95,4.52-.93,5.89Zm10.9,9.04c-1.37,1.88-4.01,2.3-5.89,.93-1.89-1.37-2.3-4.01-.93-5.89,1.37-1.88,4.01-2.3,5.89-.93,1.88,1.37,2.3,4.01,.93,5.89Zm-.96-20.19c-2.02,1.16-4.6,.47-5.76-1.54-1.16-2.02-.47-4.6,1.54-5.76,2.02-1.17,4.6-.47,5.76,1.54,1.17,2.02,.47,4.6-1.54,5.76Zm5.29,5.29c1.17-2.02,3.74-2.71,5.76-1.54,2.02,1.17,2.71,3.74,1.54,5.76-1.17,2.02-3.74,2.71-5.76,1.54-2.02-1.16-2.71-3.74-1.54-5.76Zm8.83,20.12c-.72,2.21-3.1,3.43-5.31,2.71-2.21-.72-3.43-3.1-2.71-5.31,.72-2.22,3.1-3.43,5.31-2.71,2.21,.72,3.43,3.1,2.71,5.31Z" style="fill:#3bb9c4;"/></g></svg>